<svg xmlns="http://www.w3.org/2000/svg" width="8.716" height="8.716" viewBox="0 0 8.716 8.716">
  <path id="Icon_material-copyright" data-name="Icon material-copyright" d="M6.521,6.861a1.114,1.114,0,0,1,.131-.379.762.762,0,0,1,.257-.27.773.773,0,0,1,.4-.1.79.79,0,0,1,.275.057.7.7,0,0,1,.227.157.839.839,0,0,1,.148.231.763.763,0,0,1,.061.279H8.8a1.56,1.56,0,0,0-.122-.562,1.308,1.308,0,0,0-.305-.44A1.423,1.423,0,0,0,7.9,5.545a1.683,1.683,0,0,0-.606-.1,1.7,1.7,0,0,0-.741.148,1.5,1.5,0,0,0-.523.4,1.638,1.638,0,0,0-.309.593,2.552,2.552,0,0,0-.1.715v.118a2.551,2.551,0,0,0,.1.715,1.584,1.584,0,0,0,.309.588,1.488,1.488,0,0,0,.523.4,1.768,1.768,0,0,0,.741.148,1.662,1.662,0,0,0,.575-.1,1.486,1.486,0,0,0,.471-.275,1.33,1.33,0,0,0,.322-.41,1.173,1.173,0,0,0,.131-.5h-.78a.62.62,0,0,1-.065.253.641.641,0,0,1-.157.2.686.686,0,0,1-.227.131.865.865,0,0,1-.261.044.74.74,0,0,1-.388-.1.762.762,0,0,1-.257-.27,1.139,1.139,0,0,1-.131-.383,2.937,2.937,0,0,1-.035-.436V7.3a2.9,2.9,0,0,1,.035-.44ZM7.358,3a4.358,4.358,0,1,0,4.358,4.358A4.36,4.36,0,0,0,7.358,3Zm0,7.844a3.486,3.486,0,1,1,3.486-3.486A3.491,3.491,0,0,1,7.358,10.844Z" transform="translate(-3 -3)" fill="#425656"/>
</svg>
