<svg xmlns="http://www.w3.org/2000/svg" width="1.564" height="2.707" viewBox="0 0 1.564 2.707">
  <path id="Path_14" data-name="Path 14" d="M351.7,319.376l-.125-.471a.26.26,0,0,0-.479-.057c-.028.052-.054.108-.079.162a1.116,1.116,0,0,1-.13.236.574.574,0,0,1-.152.09.714.714,0,0,0-.433.42.761.761,0,0,0-.017.366.236.236,0,0,1-.007.153l0,.006a.874.874,0,0,0-.021.862.541.541,0,0,0,.441.275.42.42,0,0,0,.069-.006c.265-.043.464-.319.627-.867l.305-1.03A.26.26,0,0,0,351.7,319.376ZM350.9,320.4a1.576,1.576,0,0,1-.2.468l-.016-.021c-.05-.071.025-.245.074-.36l0-.006a.731.731,0,0,0,.043-.433.272.272,0,0,1,0-.135c.01-.032.071-.064.163-.108.041-.02.085-.041.131-.067Z" transform="translate(-350.15 -318.712)" fill="#425656"/>
</svg>
