<svg xmlns="http://www.w3.org/2000/svg" width="13.01" height="12.939" viewBox="0 0 13.01 12.939">
  <path id="Path_13" data-name="Path 13" d="M12.138,3.238A6.523,6.523,0,0,0,3.255.87,6.457,6.457,0,0,0,4.361,12.578a6.539,6.539,0,0,0,4.472-.065.253.253,0,1,0-.182-.472,5.983,5.983,0,0,1-5.732-.784l.228-1.182.11-.035a.786.786,0,0,0,.508-.991L3.683,8.8a.278.278,0,0,1,0-.174.783.783,0,0,0-.069-.643.791.791,0,0,0-.53-.374L2.51,7.5,1.4,6.664a.255.255,0,0,0-.232-.039l-.648.209a5.926,5.926,0,0,1,0-.69l.052.05a.254.254,0,0,0,.047.057.258.258,0,0,0,.2.07,3.71,3.71,0,0,0,.455-.052c.214-.032.428-.067.43-.067a.252.252,0,0,0,.168-.392l-.312-.454.446-.317a.253.253,0,0,0,.073-.08l.692-1.2.279-.3a1.063,1.063,0,0,0,.207-1.132A1.164,1.164,0,0,0,2.8,1.786,6,6,0,0,1,6.437.511l-.454.566L4.3,1.664a.253.253,0,0,0-.151.142L3.68,2.939a.252.252,0,0,0,.028.243l.686.956a2.4,2.4,0,0,0-.308.38c-.05.071-.1.138-.13.175l-.085.1a2.365,2.365,0,0,0-.409.564,1.5,1.5,0,0,0,.126,1.522,1.429,1.429,0,0,0,1.346.575,1.988,1.988,0,0,0,.248-.05c.218-.054.287-.059.357.006.034.032.037.038.036.145A.977.977,0,0,0,5.6,7.8a.8.8,0,0,0,.215.349.567.567,0,0,1,.092.117.626.626,0,0,1-.031.523l-.02.06a1.412,1.412,0,0,0,.187,1.014c.046.1.089.2.118.279.228.674.4.829.537.891a.532.532,0,0,0,.222.047,1.422,1.422,0,0,0,.924-.553A.774.774,0,0,0,8,10.161a.4.4,0,0,1,.032-.113.663.663,0,0,1,.083-.107A.876.876,0,0,0,8.323,9.6.556.556,0,0,1,8.5,9.329l.056-.06a.807.807,0,0,0,.159-.942c-.078-.249.058-.409.387-.713a2.735,2.735,0,0,0,.4-.432.543.543,0,0,0,.108-.506c-.092-.212-.325-.248-.513-.276a.846.846,0,0,1-.222-.052,1.194,1.194,0,0,1-.346-.522c-.019-.041-.037-.082-.055-.121-.033-.07-.066-.155-.1-.245a2.116,2.116,0,0,0-.376-.7,1.627,1.627,0,0,0-.729-.322c-.09-.024-.174-.047-.23-.067a.255.255,0,0,0-.146-.009.661.661,0,0,0-.271.112.314.314,0,0,0-.09.121,2.909,2.909,0,0,1-.3-.181l0,0A.357.357,0,0,0,6.2,4.17c-.142-.3-.613-.275-.706-.267-.053,0-.12.007-.19.009-.111,0-.234.008-.355.022l.006-.017a.649.649,0,0,1,.61-.427H5.71a.253.253,0,1,0,0-.505H5.566a1.161,1.161,0,0,0-.984.546L4.2,3l.373-.9L6.22,1.53a.254.254,0,0,0,.115-.081L7.066.537A6,6,0,0,1,11.7,3.49a5.88,5.88,0,0,1,.6,1.446l-.108.1a.673.673,0,0,0-.226.491s0,0,0,.006l-.175-.48a.63.63,0,0,0-.114-.2L11.36,4.49a.638.638,0,0,0-.485-.222h-.383a.368.368,0,0,0-.324.193.364.364,0,0,0,.018.376l.039.058a2.819,2.819,0,0,1-.839.5l-.525-1V4.166a.252.252,0,0,0-.079-.183l-.473-.449a.255.255,0,0,0-.091-.056L7.792,3.33a.253.253,0,1,0-.168.477L8,3.938l.355.337v.177a.252.252,0,0,0,.029.117l.658,1.253a.255.255,0,0,0,.313.12l.191-.07a3.327,3.327,0,0,0,1.192-.759.252.252,0,0,0,.032-.319l-.014-.02h.121a.13.13,0,0,1,.1.045l.313.365a.128.128,0,0,1,.023.04l.345.945a.254.254,0,0,0,.184.16.255.255,0,0,0,.235-.068l.164-.164a.788.788,0,0,0,.21-.38,5.969,5.969,0,0,1-2.234,5.442.252.252,0,0,0-.043.355.255.255,0,0,0,.357.043,6.446,6.446,0,0,0,1.61-8.318ZM1.2,7.147l1.048.792a.254.254,0,0,0,.105.047l.631.123a.281.281,0,0,1,.214.363.777.777,0,0,0,0,.488l.08.246A.281.281,0,0,1,3.1,9.56l-.252.082a.253.253,0,0,0-.171.193l-.2,1.055A6.035,6.035,0,0,1,1.315,9.453a5.91,5.91,0,0,1-.738-2.1ZM2.683,3.116l-.3.319a.254.254,0,0,0-.035.047L1.67,4.66l-.6.429A.252.252,0,0,0,1,5.437l.226.329C1.1,5.785.984,5.8.906,5.81L.859,5.766C.8,5.71.715,5.636.59,5.527a5.963,5.963,0,0,1,1.79-3.38.659.659,0,0,1,.412.375A.558.558,0,0,1,2.683,3.116ZM4.754,4.5a1.638,1.638,0,0,1,.568-.079c.077,0,.15-.005.215-.011a.7.7,0,0,1,.108,0,.252.252,0,0,0,.117.314c.048.025.114.069.184.116a1.468,1.468,0,0,0,.635.294.423.423,0,0,0,.345-.143l.011-.011A.271.271,0,0,0,7.006,4.9l.127.035a1.7,1.7,0,0,1,.492.181,1.79,1.79,0,0,1,.271.531c.038.1.074.191.115.277.017.037.034.075.052.113a1.578,1.578,0,0,0,.532.738,1.054,1.054,0,0,0,.423.128l.055.009a2.449,2.449,0,0,1-.322.336c-.315.291-.706.654-.526,1.232.085.273.089.3-.048.451l-.052.056a1.038,1.038,0,0,0-.286.462.394.394,0,0,1-.1.161,1.129,1.129,0,0,0-.142.187.816.816,0,0,0-.092.268.308.308,0,0,1-.053.148,1.479,1.479,0,0,1-.321.282.421.421,0,0,1-.213.084,1.8,1.8,0,0,1-.274-.594c-.037-.108-.087-.219-.136-.327a1.079,1.079,0,0,1-.166-.65l.019-.058a1.1,1.1,0,0,0,.017-.875.911.911,0,0,0-.185-.262.47.47,0,0,1-.1-.128.543.543,0,0,1-.008-.128.625.625,0,0,0-.2-.517.822.822,0,0,0-.826-.128,1.6,1.6,0,0,1-.185.038A.915.915,0,0,1,4,6.581a1,1,0,0,1-.079-1.012,1.919,1.919,0,0,1,.329-.444l.089-.1c.05-.057.1-.134.162-.215A1.829,1.829,0,0,1,4.754,4.5Z" transform="translate(0 -0.001)" fill="#425656"/>
</svg>
